<svg xmlns="http://www.w3.org/2000/svg" xmlns:xlink="http://www.w3.org/1999/xlink" width="100%"  <text x="0" y="15" fill="red">I love SVG!</text> viewBox="0 0 1360 372.224"><defs><style>.a{fill:url(#a);}.b{fill:#d1d1d1;}.c{fill:#238a8c;}.d,.h,.i,.j{fill:none;}.e{fill:rgba(9,32,44,0.41);opacity:0.314;}.f{fill:#c8f3f4;opacity:0.343;}.g{clip-path:url(#b);}.h{stroke:#8eebff;}.h,.i,.j{stroke-width:55px;}.i{stroke:#fff;}.j{stroke:#2afc9c;}.k{fill:#fff;}.l,.m,.n{stroke:none;}.m{fill:#004f50;}.n{fill:#8dcea1;}</style><linearGradient id="a" y1="0.5" x2="1" y2="0.5" gradientUnits="objectBoundingBox"><stop offset="0" stop-color="#238a8c"/><stop offset="1" stop-color="#47b0b2"/></linearGradient><clipPath id="b"><rect class="a" width="1288" height="372" transform="translate(597 181)"/></clipPath></defs><g transform="translate(-510 -143)"><rect class="b" width="1288" height="372" transform="translate(528 143)"/><g transform="translate(510.504 143.219)"><rect class="c" width="1360" height="372" transform="translate(-0.504 -0.219)"/></g><g class="d" transform="translate(1508 309.59)"><path class="l" d="M73.206,146.411A73.206,73.206,0,1,0,0,73.206,73.206,73.206,0,0,0,73.206,146.411Z"/><path class="m" d="M 73.20555877685547 144.4111175537109 C 82.81913757324219 144.4111175537109 92.14408111572266 142.5287322998047 100.9213562011719 138.8162536621094 C 105.1401596069336 137.0318450927734 109.2093353271484 134.8231506347656 113.0158767700195 132.2515106201172 C 116.7867584228516 129.7039489746094 120.3328018188477 126.778190612793 123.5554962158203 123.5554885864258 C 126.7781982421875 120.3327941894531 129.7039642333984 116.786750793457 132.2515258789062 113.015869140625 C 134.8231658935547 109.2093276977539 137.0318603515625 105.1401519775391 138.8162536621094 100.9213485717773 C 142.5287322998047 92.14407348632812 144.4111175537109 82.81912994384766 144.4111175537109 73.20555114746094 C 144.4111175537109 63.59199142456055 142.5287322998047 54.26705169677734 138.8162536621094 45.48974990844727 C 137.0318603515625 41.27096939086914 134.8231658935547 37.20178985595703 132.2515258789062 33.3952522277832 C 129.7039642333984 29.62437057495117 126.7781982421875 26.07833099365234 123.5554962158203 22.85563087463379 C 120.3328018188477 19.63293075561523 116.7867584228516 16.7071704864502 113.0158767700195 14.15961074829102 C 109.2093353271484 11.58797073364258 105.1401596069336 9.379271507263184 100.9213562011719 7.594871044158936 C 92.14408111572266 3.882391214370728 82.81913757324219 2.000011205673218 73.20555877685547 2.000011205673218 C 63.59197998046875 2.000011205673218 54.26704025268555 3.882391214370728 45.4897575378418 7.594871044158936 C 41.27095794677734 9.379271507263184 37.20177841186523 11.58797073364258 33.39523696899414 14.15961074829102 C 29.62435913085938 16.7071704864502 26.07831954956055 19.63293075561523 22.85561943054199 22.85563087463379 C 19.63291931152344 26.07833099365234 16.7071590423584 29.62437057495117 14.1595983505249 33.3952522277832 C 11.58795833587646 37.20178985595703 9.37925910949707 41.27096939086914 7.594858646392822 45.48974990844727 C 3.882378816604614 54.26705169677734 1.999998807907104 63.59199142456055 1.999998807907104 73.20555114746094 C 1.999998807907104 82.81912994384766 3.882378816604614 92.14407348632812 7.594858646392822 100.9213485717773 C 9.37925910949707 105.1401519775391 11.58795833587646 109.2093276977539 14.1595983505249 113.015869140625 C 16.7071590423584 116.786750793457 19.63291931152344 120.3327941894531 22.85561943054199 123.5554885864258 C 26.07831954956055 126.778190612793 29.62435913085938 129.7039489746094 33.39523696899414 132.2515106201172 C 37.20177841186523 134.8231506347656 41.27095794677734 137.0318450927734 45.4897575378418 138.8162536621094 C 54.26704025268555 142.5287322998047 63.59197998046875 144.4111175537109 73.20555877685547 144.4111175537109 M 73.20555877685547 146.4111175537109 C 32.77523803710938 146.4111175537109 -1.223144522555231e-06 113.635871887207 -1.223144522555231e-06 73.20555114746094 C -1.223144522555231e-06 32.77524948120117 32.77523803710938 1.114746100938646e-05 73.20555877685547 1.114746100938646e-05 C 113.6358795166016 1.114746100938646e-05 146.4111175537109 32.77524948120117 146.4111175537109 73.20555114746094 C 146.4111175537109 113.635871887207 113.6358795166016 146.4111175537109 73.20555877685547 146.4111175537109 Z"/></g><g transform="translate(-60.04 -23)"><path class="e" d="M42.683,94.449c23.573,0,42.683-21.143,42.683-47.224S66.257,0,42.683,0,0,21.143,0,47.224,19.11,94.449,42.683,94.449Z" transform="translate(1600.673 378.536)"/><path class="f" d="M44.5,89A44.5,44.5,0,1,0,0,44.5,44.5,44.5,0,0,0,44.5,89Z" transform="translate(1597.04 361.557)"/></g><g class="g" transform="translate(-69 -38)"><g class="d" transform="translate(1055.449 391.699)"><path class="l" d="M176.228,352.455A176.228,176.228,0,1,0,0,176.228,176.228,176.228,0,0,0,176.228,352.455Z"/><path class="n" d="M 176.2276458740234 350.4552917480469 C 188.050048828125 350.4552917480469 199.8644714355469 349.2643127441406 211.3426971435547 346.9155578613281 C 222.5281982421875 344.6266784667969 233.5305938720703 341.2113342285156 244.0442810058594 336.764404296875 C 254.3675537109375 332.3980407714844 264.3245239257812 326.9935607910156 273.6385498046875 320.7011108398438 C 282.8646545410156 314.4681091308594 291.5404968261719 307.309814453125 299.4252014160156 299.4252014160156 C 307.309814453125 291.5404968261719 314.4681091308594 282.8646545410156 320.7011108398438 273.6385498046875 C 326.9935607910156 264.3245239257812 332.3980407714844 254.3675537109375 336.764404296875 244.0442810058594 C 341.2113342285156 233.5305938720703 344.6266784667969 222.5281982421875 346.9155578613281 211.3426971435547 C 349.2643127441406 199.8644714355469 350.4552917480469 188.050048828125 350.4552917480469 176.2276458740234 C 350.4552917480469 164.4052429199219 349.2643127441406 152.5908203125 346.9155578613281 141.1125946044922 C 344.6266784667969 129.9270935058594 341.2113342285156 118.924690246582 336.764404296875 108.4110107421875 C 332.3980407714844 98.08773803710938 326.9935607910156 88.13078308105469 320.7011108398438 78.81673431396484 C 314.4681091308594 69.59064483642578 307.309814453125 60.9147834777832 299.4252014160156 53.03010177612305 C 291.5404968261719 45.14546585083008 282.8646545410156 37.98719024658203 273.6385498046875 31.75419044494629 C 264.3245239257812 25.46173667907715 254.3675537109375 20.05723762512207 244.0442810058594 15.69087314605713 C 233.5305938720703 11.24396419525146 222.5281982421875 7.828600406646729 211.3426971435547 5.539736747741699 C 199.8644714355469 3.190963983535767 188.050048828125 2.000009536743164 176.2276458740234 2.000009536743164 C 164.4052429199219 2.000009536743164 152.5908203125 3.190963983535767 141.1125946044922 5.539736747741699 C 129.9270935058594 7.828600406646729 118.924690246582 11.24396419525146 108.4110107421875 15.69087314605713 C 98.08773803710938 20.05723762512207 88.13078308105469 25.46173667907715 78.81673431396484 31.75419044494629 C 69.59064483642578 37.98719024658203 60.9147834777832 45.14546585083008 53.03010177612305 53.03010177612305 C 45.14546585083008 60.9147834777832 37.98719024658203 69.59064483642578 31.75419044494629 78.81673431396484 C 25.46173667907715 88.13078308105469 20.05723762512207 98.08773803710938 15.69087314605713 108.4110107421875 C 11.24396419525146 118.924690246582 7.828600406646729 129.9270935058594 5.539736747741699 141.1125946044922 C 3.190963983535767 152.5908203125 2.000009536743164 164.4052429199219 2.000009536743164 176.2276458740234 C 2.000009536743164 188.050048828125 3.190963983535767 199.8644714355469 5.539736747741699 211.3426971435547 C 7.828600406646729 222.5281982421875 11.24396419525146 233.5305938720703 15.69087314605713 244.0442810058594 C 20.05723762512207 254.3675537109375 25.46173667907715 264.3245239257812 31.75419044494629 273.6385498046875 C 37.98719024658203 282.8646545410156 45.14546585083008 291.5404968261719 53.03010177612305 299.4252014160156 C 60.9147834777832 307.309814453125 69.59064483642578 314.4681091308594 78.81673431396484 320.7011108398438 C 88.13078308105469 326.9935607910156 98.08773803710938 332.3980407714844 108.4110107421875 336.764404296875 C 118.924690246582 341.2113342285156 129.9270935058594 344.6266784667969 141.1125946044922 346.9155578613281 C 152.5908203125 349.2643127441406 164.4052429199219 350.4552917480469 176.2276458740234 350.4552917480469 M 176.2276458740234 352.4552917480469 C 78.89982604980469 352.4552917480469 9.510386917099822e-06 273.5554504394531 9.510386917099822e-06 176.2276458740234 C 9.510386917099822e-06 78.89982604980469 78.89982604980469 9.510386917099822e-06 176.2276458740234 9.510386917099822e-06 C 273.5554504394531 9.510386917099822e-06 352.4552917480469 78.89982604980469 352.4552917480469 176.2276458740234 C 352.4552917480469 273.5554504394531 273.5554504394531 352.4552917480469 176.2276458740234 352.4552917480469 Z"/></g><g class="d" transform="translate(1108.317 462.19)"><path class="l" d="M125.122,250.243A125.122,125.122,0,1,0,0,125.122,125.122,125.122,0,0,0,125.122,250.243Z"/><path class="n" d="M 125.1216278076172 248.2432556152344 C 133.4765930175781 248.2432556152344 141.8256988525391 247.4016571044922 149.9370574951172 245.7418212890625 C 157.8412322998047 244.1243896484375 165.6160583496094 241.7109680175781 173.0455017089844 238.5685577392578 C 180.3405303955078 235.4830322265625 187.3767547607422 231.6638946533203 193.9586944580078 227.2171936035156 C 200.4786224365234 222.8124237060547 206.6097564697266 217.7537536621094 212.1817626953125 212.1817626953125 C 217.7537536621094 206.6097564697266 222.8124237060547 200.4786224365234 227.2171936035156 193.9586944580078 C 231.6638946533203 187.3767547607422 235.4830322265625 180.3405303955078 238.5685577392578 173.0455017089844 C 241.7109680175781 165.6160583496094 244.1243896484375 157.8412322998047 245.7418212890625 149.9370574951172 C 247.4016571044922 141.8256988525391 248.2432556152344 133.4765930175781 248.2432556152344 125.1216278076172 C 248.2432556152344 116.7666625976562 247.4016571044922 108.4175643920898 245.7418212890625 100.3061981201172 C 244.1243896484375 92.40203094482422 241.7109680175781 84.627197265625 238.5685577392578 77.19776153564453 C 235.4830322265625 69.90272521972656 231.6638946533203 62.86649322509766 227.2171936035156 56.28456115722656 C 222.8124237060547 49.76462936401367 217.7537536621094 43.63349533081055 212.1817626953125 38.06149291992188 C 206.6097564697266 32.48949432373047 200.4786224365234 27.43082809448242 193.9586944580078 23.02606201171875 C 187.3767547607422 18.57936096191406 180.3405303955078 14.76022815704346 173.0455017089844 11.6746940612793 C 165.6160583496094 8.532294273376465 157.8412322998047 6.118861198425293 149.9370574951172 4.50142765045166 C 141.8256988525391 2.841594457626343 133.4765930175781 1.999994516372681 125.1216278076172 1.999994516372681 C 116.7666625976562 1.999994516372681 108.4175643920898 2.841594457626343 100.3061981201172 4.50142765045166 C 92.40203094482422 6.118861198425293 84.627197265625 8.532294273376465 77.19776153564453 11.6746940612793 C 69.90272521972656 14.76022815704346 62.86649322509766 18.57936096191406 56.28456115722656 23.02606201171875 C 49.76462936401367 27.43082809448242 43.63349533081055 32.48949432373047 38.06149291992188 38.06149291992188 C 32.48949432373047 43.63349533081055 27.43082809448242 49.76462936401367 23.02606201171875 56.28456115722656 C 18.57936096191406 62.86649322509766 14.76022815704346 69.90272521972656 11.6746940612793 77.19776153564453 C 8.532294273376465 84.627197265625 6.118861198425293 92.40203094482422 4.50142765045166 100.3061981201172 C 2.841594457626343 108.4175643920898 1.999994516372681 116.7666625976562 1.999994516372681 125.1216278076172 C 1.999994516372681 133.4765930175781 2.841594457626343 141.8256988525391 4.50142765045166 149.9370574951172 C 6.118861198425293 157.8412322998047 8.532294273376465 165.6160583496094 11.6746940612793 173.0455017089844 C 14.76022815704346 180.3405303955078 18.57936096191406 187.3767547607422 23.02606201171875 193.9586944580078 C 27.43082809448242 200.4786224365234 32.48949432373047 206.6097564697266 38.06149291992188 212.1817626953125 C 43.63349533081055 217.7537536621094 49.76462936401367 222.8124237060547 56.28456115722656 227.2171936035156 C 62.86649322509766 231.6638946533203 69.90272521972656 235.4830322265625 77.19776153564453 238.5685577392578 C 84.627197265625 241.7109680175781 92.40203094482422 244.1243896484375 100.3061981201172 245.7418212890625 C 108.4175643920898 247.4016571044922 116.7666625976562 248.2432556152344 125.1216278076172 248.2432556152344 M 125.1216278076172 250.2432556152344 C 56.01885986328125 250.2432556152344 -5.525716005649883e-06 194.2243957519531 -5.525716005649883e-06 125.1216278076172 C -5.525716005649883e-06 56.01885986328125 56.01885986328125 -5.525716005649883e-06 125.1216278076172 -5.525716005649883e-06 C 194.2243957519531 -5.525716005649883e-06 250.2432556152344 56.01885986328125 250.2432556152344 125.1216278076172 C 250.2432556152344 194.2243957519531 194.2243957519531 250.2432556152344 125.1216278076172 250.2432556152344 Z"/></g><g class="d" transform="translate(1087.17 426.944)"><path class="l" d="M144.507,289.013A144.507,144.507,0,1,0,0,144.507,144.507,144.507,0,0,0,144.507,289.013Z"/><path class="n" d="M 144.5066680908203 287.0133361816406 C 154.1768646240234 287.0133361816406 163.8403930664062 286.0392150878906 173.2288665771484 284.1180419921875 C 182.3776702880859 282.2459411621094 191.3767395019531 279.4524841308594 199.9760894775391 275.8152770996094 C 208.4197387695312 272.243896484375 216.5638580322266 267.8233947753906 224.1820983886719 262.6766357421875 C 231.728515625 257.578369140625 238.8249053955078 251.7233276367188 245.2740936279297 245.2740936279297 C 251.7233276367188 238.8249053955078 257.578369140625 231.728515625 262.6766357421875 224.1820983886719 C 267.8233947753906 216.5638580322266 272.243896484375 208.4197387695312 275.8152770996094 199.9760894775391 C 279.4524841308594 191.3767395019531 282.2459411621094 182.3776702880859 284.1180419921875 173.2288665771484 C 286.0392150878906 163.8403930664062 287.0133361816406 154.1768646240234 287.0133361816406 144.5066680908203 C 287.0133361816406 134.8364715576172 286.0392150878906 125.1729354858398 284.1180419921875 115.7844772338867 C 282.2459411621094 106.6356658935547 279.4524841308594 97.63658905029297 275.8152770996094 89.03724670410156 C 272.243896484375 80.59358978271484 267.8233947753906 72.44947814941406 262.6766357421875 64.83124542236328 C 257.578369140625 57.28482055664062 251.7233276367188 50.18843841552734 245.2740936279297 43.7392463684082 C 238.8249053955078 37.29001235961914 231.728515625 31.43497657775879 224.1820983886719 26.33670616149902 C 216.5638580322266 21.18993759155273 208.4197387695312 16.76943778991699 199.9760894775391 13.19805240631104 C 191.3767395019531 9.560860633850098 182.3776702880859 6.767398834228516 173.2288665771484 4.895283699035645 C 163.8403930664062 2.974129676818848 154.1768646240234 2.000014305114746 144.5066680908203 2.000014305114746 C 134.8364715576172 2.000014305114746 125.1729354858398 2.974129676818848 115.7844772338867 4.895283699035645 C 106.6356658935547 6.767398834228516 97.63658905029297 9.560860633850098 89.03724670410156 13.19805240631104 C 80.59358978271484 16.76943778991699 72.44947814941406 21.18993759155273 64.83124542236328 26.33670616149902 C 57.28482055664062 31.43497657775879 50.18843841552734 37.29001235961914 43.7392463684082 43.7392463684082 C 37.29001235961914 50.18843841552734 31.43497657775879 57.28482055664062 26.33670616149902 64.83124542236328 C 21.18993759155273 72.44947814941406 16.76943778991699 80.59358978271484 13.19805240631104 89.03724670410156 C 9.560860633850098 97.63658905029297 6.767398834228516 106.6356658935547 4.895283699035645 115.7844772338867 C 2.974129676818848 125.1729354858398 2.000014305114746 134.8364715576172 2.000014305114746 144.5066680908203 C 2.000014305114746 154.1768646240234 2.974129676818848 163.8403930664062 4.895283699035645 173.2288665771484 C 6.767398834228516 182.3776702880859 9.560860633850098 191.3767395019531 13.19805240631104 199.9760894775391 C 16.76943778991699 208.4197387695312 21.18993759155273 216.5638580322266 26.33670616149902 224.1820983886719 C 31.43497657775879 231.728515625 37.29001235961914 238.8249053955078 43.7392463684082 245.2740936279297 C 50.18843841552734 251.7233276367188 57.28482055664062 257.578369140625 64.83124542236328 262.6766357421875 C 72.44947814941406 267.8233947753906 80.59358978271484 272.243896484375 89.03724670410156 275.8152770996094 C 97.63658905029297 279.4524841308594 106.6356658935547 282.2459411621094 115.7844772338867 284.1180419921875 C 125.1729354858398 286.0392150878906 134.8364715576172 287.0133361816406 144.5066680908203 287.0133361816406 M 144.5066680908203 289.0133361816406 C 64.69782257080078 289.0133361816406 1.424466609023511e-05 224.3155212402344 1.424466609023511e-05 144.5066680908203 C 1.424466609023511e-05 64.69782257080078 64.69782257080078 1.424466609023511e-05 144.5066680908203 1.424466609023511e-05 C 224.3155212402344 1.424466609023511e-05 289.0133361816406 64.69782257080078 289.0133361816406 144.5066680908203 C 289.0133361816406 224.3155212402344 224.3155212402344 289.0133361816406 144.5066680908203 289.0133361816406 Z"/></g><path class="h" d="M209,242.162a136.667,136.667,0,0,0,24.837-33.7c34.915-66.364,14.051-151.315-46.6-189.743S49.105,2.933,14.19,69.3A146.689,146.689,0,0,0,0,109.8" transform="matrix(0.999, 0.035, -0.035, 0.999, 1384.548, 17.052)"/><path class="i" d="M191.259,204.122a116.326,116.326,0,0,0,22.729-28.41c31.952-55.939,12.858-127.546-42.647-159.937A115.206,115.206,0,0,0,12.985,58.411,117.317,117.317,0,0,0,0,92.554" transform="translate(1368.278 237.833) rotate(180)"/><path class="j" d="M308.774,143.3a154.69,154.69,0,0,1-16.686,45.543c-41.7,74.972-136.509,102.042-211.77,60.464S-22.151,113.247,19.545,38.276A155.092,155.092,0,0,1,49.5,0" transform="translate(1498.613 316.536)"/><path class="k" d="M1184.672,181h155.953l-17.07,35.547s-94.336,4.453-104.973,4.906S1184.672,181,1184.672,181Z"/></g></g></svg>