<svg xmlns="http://www.w3.org/2000/svg" width="26.416" height="25.095" viewBox="0 0 26.416 25.095"><defs><style>.a{fill:#238a8c;}</style></defs><path class="a" d="M25.774,7.283H21.812V4.642A2.632,2.632,0,0,0,19.17,2H11.245A2.632,2.632,0,0,0,8.6,4.642V7.283H4.642A2.632,2.632,0,0,0,2,9.925V24.453a2.632,2.632,0,0,0,2.642,2.642H25.774a2.632,2.632,0,0,0,2.642-2.642V9.925A2.632,2.632,0,0,0,25.774,7.283ZM11.245,4.642H19.17V7.283H11.245ZM25.774,24.453H4.642V21.812H25.774Zm0-6.6H4.642V9.925H8.6v2.642h2.642V9.925H19.17v2.642h2.642V9.925h3.962Z" transform="translate(-2 -2)"/></svg>