<?xml version="1.0" encoding="utf-8"?>
<!-- Generator: Adobe Illustrator 25.0.0, SVG Export Plug-In . SVG Version: 6.00 Build 0)  -->
<svg version="1.1" id="Layer_1" xmlns="http://www.w3.org/2000/svg" xmlns:xlink="http://www.w3.org/1999/xlink" x="0px" y="0px"
	 viewBox="0 0 24 21.1" style="enable-background:new 0 0 24 21.1;" xml:space="preserve">
<g transform="translate(0 -26.137)">
	<g transform="translate(0 26.137)">
		<g>
			<path class="st0" d="M21.6,3.3H17V2.5c0-1.3-1-2.3-2.3-2.4H9.3C8.1,0.1,7,1.2,7,2.5v0.8H2.5c-0.6,0-1.2,0.2-1.6,0.6
				c-0.4,0.4-0.7,1-0.7,1.6v13.1c0,0.6,0.2,1.2,0.6,1.7s1,0.7,1.6,0.7h19c1.3,0,2.3-1,2.3-2.3v-13C23.8,4.4,22.9,3.3,21.6,3.3z
				 M8.4,3.3V2.5c0-0.5,0.4-0.9,0.9-1h5.4c0.5,0,0.9,0.4,0.9,0.9v0.8H8.4z M22.4,18.6c0,0.5-0.4,0.9-0.9,1h-19
				c-0.5,0-0.9-0.4-0.9-0.9V15c0.3,0.2,0.6,0.2,0.9,0.2h5.7v1.5c0.1,0.4,0.4,0.7,0.8,0.7H15c0.4,0,0.7-0.3,0.8-0.8v-1.5h5.7
				c0.3,0,0.6,0,0.9-0.2V18.6z M9.6,16.1v-2.6h4.9v2.6H9.6z M22.4,12.9c0,0.5-0.4,0.9-0.9,1h-5.7v-1.1c0-0.4-0.4-0.6-0.8-0.6H9
				c-0.4,0-0.8,0.2-0.8,0.6v1.1H2.5c-0.5,0-0.9-0.4-0.9-0.9V5.6c0-0.5,0.3-0.9,0.8-0.9h19.1c0.2,0,0.4,0,0.6,0.2
				c0.2,0.1,0.3,0.3,0.3,0.6V12.9z"/>
		</g>
	</g>
</g>
</svg>
