<svg xmlns="http://www.w3.org/2000/svg" width="25.966" height="25.962" viewBox="0 0 25.966 25.962"><defs><style>.a{fill:#3e3d3d;}</style></defs><path class="a" d="M-6.394-11.743q1.906-2.917,3.7-2.917a2.544,2.544,0,0,1,1.848.809,16.534,16.534,0,0,1,2.224,2.686,4.012,4.012,0,0,1,.837,3.321,2.366,2.366,0,0,1-.505.9q-.39.462-1.285,1.357a11.9,11.9,0,0,0-1.1,1.184q-.289.4.549,1.733A23.946,23.946,0,0,0,2.732.732,28.229,28.229,0,0,0,5.591,3.187,4.276,4.276,0,0,0,7.641,4.2a.411.411,0,0,0,.231-.058q.26-.2,1.184-1.1.924-.924,1.372-1.3a2.328,2.328,0,0,1,.881-.491,2.268,2.268,0,0,1,.722-.116,5.276,5.276,0,0,1,2.888,1.155,15.433,15.433,0,0,1,2.368,2.022A2.418,2.418,0,0,1,18.1,6.421q-.173,1.646-2.888,3.437A9.216,9.216,0,0,1,10.125,11.3,13.836,13.836,0,0,1,4.046,9.757,22.022,22.022,0,0,1-1.918,5.382,25.182,25.182,0,0,1-5.3,1.223,17.062,17.062,0,0,1-7.318-3.2,10.015,10.015,0,0,1-6.394-11.743Zm1.04,7.971A15.748,15.748,0,0,0-3.535.126,21.444,21.444,0,0,0-.474,3.938a24.808,24.808,0,0,0,2.657,2.31A19.779,19.779,0,0,0,4.927,7.923,15.671,15.671,0,0,0,7.612,8.9a9.738,9.738,0,0,0,2.512.347,7.1,7.1,0,0,0,3.956-1.126,9.83,9.83,0,0,0,1.5-1.155,1.451,1.451,0,0,0,.491-.78.518.518,0,0,0-.231-.433,15.811,15.811,0,0,0-2.079-1.79,3.536,3.536,0,0,0-1.733-.78.118.118,0,0,0-.087.029,1.144,1.144,0,0,0-.347.26q-.318.26-1.1,1.011A13.387,13.387,0,0,1,9.085,5.815l-.058.029a2.441,2.441,0,0,1-1.386.4,3.835,3.835,0,0,1-1.5-.347,8.481,8.481,0,0,1-1.762-1.04A35.081,35.081,0,0,1,1.317,2.234l-.029-.029L1.23,2.147A26.707,26.707,0,0,1-1.86-1.578a6.977,6.977,0,0,1-.693-1.357A3.963,3.963,0,0,1-2.784-4a2.4,2.4,0,0,1,.433-1.588A13.845,13.845,0,0,1-1.08-6.978l.058-.058Q-.272-7.787-.012-8.1a2.72,2.72,0,0,0,.26-.375q.116-.462-.606-1.588a14.62,14.62,0,0,0-1.935-2.31.634.634,0,0,0-.4-.231,1.283,1.283,0,0,0-.751.433,8.806,8.806,0,0,0-1.213,1.559,7.144,7.144,0,0,0-1.1,3.061A10.059,10.059,0,0,0-5.354-3.773Z" transform="translate(7.851 14.66)"/></svg>