<svg xmlns="http://www.w3.org/2000/svg" width="27.264" height="27.264" viewBox="0 0 27.264 27.264"><defs><style>.a{fill:#3e3d3d;}</style></defs><path class="a" d="M10.508,9.088H1.988A1.99,1.99,0,0,1,0,7.1V1.988A1.99,1.99,0,0,1,1.988,0h8.52A1.99,1.99,0,0,1,12.5,1.988V7.1A1.99,1.99,0,0,1,10.508,9.088ZM1.988,1.7a.284.284,0,0,0-.284.284V7.1a.284.284,0,0,0,.284.284h8.52a.284.284,0,0,0,.284-.284V1.988a.284.284,0,0,0-.284-.284Zm0,0"/><path class="a" d="M10.508,229.236H1.988A1.99,1.99,0,0,1,0,227.248V215.32a1.99,1.99,0,0,1,1.988-1.988h8.52A1.99,1.99,0,0,1,12.5,215.32v11.928A1.99,1.99,0,0,1,10.508,229.236Zm-8.52-14.2a.284.284,0,0,0-.284.284v11.928a.284.284,0,0,0,.284.284h8.52a.284.284,0,0,0,.284-.284V215.32a.284.284,0,0,0-.284-.284Zm0,0" transform="translate(0 -201.972)"/><path class="a" d="M287.84,350.42h-8.52a1.99,1.99,0,0,1-1.988-1.988V343.32a1.99,1.99,0,0,1,1.988-1.988h8.52a1.99,1.99,0,0,1,1.988,1.988v5.112A1.99,1.99,0,0,1,287.84,350.42Zm-8.52-7.384a.284.284,0,0,0-.284.284v5.112a.284.284,0,0,0,.284.284h8.52a.284.284,0,0,0,.284-.284V343.32a.284.284,0,0,0-.284-.284Zm0,0" transform="translate(-262.564 -323.156)"/><path class="a" d="M287.84,15.9h-8.52a1.99,1.99,0,0,1-1.988-1.988V1.988A1.99,1.99,0,0,1,279.32,0h8.52a1.99,1.99,0,0,1,1.988,1.988V13.916A1.99,1.99,0,0,1,287.84,15.9ZM279.32,1.7a.284.284,0,0,0-.284.284V13.916a.284.284,0,0,0,.284.284h8.52a.284.284,0,0,0,.284-.284V1.988a.284.284,0,0,0-.284-.284Zm0,0" transform="translate(-262.564)"/></svg>