<svg xmlns="http://www.w3.org/2000/svg" width="25.58" height="25.582" viewBox="0 0 25.58 25.582"><defs><style>.a{fill:#3e3d3d;}</style></defs><g transform="translate(-0.017 0)"><g transform="translate(0.017 0)"><g transform="translate(0 0)"><path class="a" d="M25.545,15.717l-1.124-2.926,1.122-2.927a.8.8,0,0,0-.243-.908L22.865,6.983l-.492-3.1a.8.8,0,0,0-.663-.663l-3.1-.492L16.64.3a.8.8,0,0,0-.908-.243L12.806,1.177,9.879.054A.8.8,0,0,0,8.973.3L7,2.732l-3.1.492a.8.8,0,0,0-.663.663l-.492,3.1L.313,8.957a.8.8,0,0,0-.243.906l1.122,2.927L.07,15.718a.8.8,0,0,0,.243.906L2.748,18.6l.492,3.1a.8.8,0,0,0,.663.663L7,22.85l1.973,2.435a.8.8,0,0,0,.908.243l2.926-1.122,2.927,1.122a.809.809,0,0,0,.286.053.8.8,0,0,0,.622-.3l1.973-2.435,3.1-.492a.8.8,0,0,0,.663-.663l.492-3.1L25.3,16.625A.8.8,0,0,0,25.545,15.717Zm-2.729-2.639,1.025,2.67-2.224,1.8a.8.8,0,0,0-.286.5l-.449,2.825-2.825.449a.8.8,0,0,0-.5.286l-1.8,2.224L13.094,22.8a.848.848,0,0,0-.288-.053.8.8,0,0,0-.286.053l-2.67,1.025L8.05,21.6a.8.8,0,0,0-.5-.286L4.73,20.868l-.449-2.825a.8.8,0,0,0-.286-.5l-2.224-1.8L2.8,13.079a.8.8,0,0,0,0-.574L1.771,9.834l2.224-1.8a.8.8,0,0,0,.286-.5L4.73,4.713l2.825-.449a.8.8,0,0,0,.5-.286l1.8-2.222,2.67,1.025a.8.8,0,0,0,.572,0l2.67-1.025,1.8,2.224a.8.8,0,0,0,.5.286l2.825.449.449,2.825a.8.8,0,0,0,.286.5l2.224,1.8L22.816,12.5A.8.8,0,0,0,22.816,13.077Z" transform="translate(-0.017 0)"/></g></g><g transform="translate(8.01 6.396)"><path class="a" d="M162.413,128.03a2.4,2.4,0,1,0,2.4,2.4A2.4,2.4,0,0,0,162.413,128.03Zm0,3.2a.8.8,0,1,1,.8-.8A.8.8,0,0,1,162.413,131.227Z" transform="translate(-160.015 -128.03)"/></g><g transform="translate(12.806 14.39)"><path class="a" d="M258.413,288.03a2.4,2.4,0,1,0,2.4,2.4A2.4,2.4,0,0,0,258.413,288.03Zm0,3.2a.8.8,0,1,1,.8-.8A.8.8,0,0,1,258.413,291.227Z" transform="translate(-256.015 -288.03)"/></g><g transform="translate(8.011 6.398)"><path class="a" d="M169.285,128.216a.8.8,0,0,0-1.114.185l-7.993,11.191a.8.8,0,0,0,1.3.929l7.993-11.191A.8.8,0,0,0,169.285,128.216Z" transform="translate(-160.027 -128.067)"/></g></g></svg>