<svg xmlns="http://www.w3.org/2000/svg" xmlns:xlink="http://www.w3.org/1999/xlink" width="23" height="21" viewBox="0 0 23 21"><defs><style>.a,.c{fill:#fff;}.a{stroke:#707070;}.b{clip-path:url(#a);}</style><clipPath id="a"><rect class="a" width="23" height="21" transform="translate(1864 37)"/></clipPath></defs><g class="b" transform="translate(-1864 -37)"><path class="c" d="M12,19a2,2,0,1,0,2,2A2.006,2.006,0,0,0,12,19ZM6,1A2,2,0,1,0,8,3,2.006,2.006,0,0,0,6,1ZM6,7A2,2,0,1,0,8,9,2.006,2.006,0,0,0,6,7Zm0,6a2,2,0,1,0,2,2A2.006,2.006,0,0,0,6,13ZM18,5a2,2,0,1,0-2-2A2.006,2.006,0,0,0,18,5Zm-6,8a2,2,0,1,0,2,2A2.006,2.006,0,0,0,12,13Zm6,0a2,2,0,1,0,2,2A2.006,2.006,0,0,0,18,13Zm0-6a2,2,0,1,0,2,2A2.006,2.006,0,0,0,18,7ZM12,7a2,2,0,1,0,2,2A2.006,2.006,0,0,0,12,7Zm0-6a2,2,0,1,0,2,2A2.006,2.006,0,0,0,12,1Z" transform="translate(1862 40)"/></g></svg>