<svg xmlns="http://www.w3.org/2000/svg" width="40" height="38" viewBox="0 0 40 38"><defs><style>.a{fill:#f0f0f0;}.b{fill:#238a8c;}</style></defs><g transform="translate(-0.222 0)"><path class="a" d="M8,0H40a0,0,0,0,1,0,0V38a0,0,0,0,1,0,0H8a8,8,0,0,1-8-8V8A8,8,0,0,1,8,0Z" transform="translate(0.222 0)"/><path class="b" d="M20.911,8.99H6.98V7H20.911Zm0,3.98H6.98V10.98H20.911Zm0,3.98H6.98v-1.99H20.911Zm-15.921,0H3v-1.99H4.99ZM4.99,7V8.99H3V7Zm0,5.97H3V10.98H4.99Z" transform="translate(8.259 6.37)"/></g></svg>