<?xml version="1.0" encoding="utf-8"?>
<!-- Generator: Adobe Illustrator 25.0.0, SVG Export Plug-In . SVG Version: 6.00 Build 0)  -->
<svg version="1.1" id="Layer_1" xmlns="http://www.w3.org/2000/svg" xmlns:xlink="http://www.w3.org/1999/xlink" x="0px" y="0px"
	 viewBox="0 0 15 15" style="enable-background:new 0 0 15 15;" xml:space="preserve">
<g transform="translate(1277.855 41)">
	<path class="st0" d="M-1269.78-37.79c-2.42-0.32-4.63,1.38-4.95,3.8c-0.32,2.42,1.38,4.63,3.8,4.95c2.42,0.32,4.63-1.38,4.95-3.8
		c0.05-0.38,0.05-0.77,0-1.15C-1266.24-35.97-1267.8-37.53-1269.78-37.79z M-1269.8-30.2c-1.78,0.31-3.47-0.89-3.77-2.66
		c-0.31-1.78,0.89-3.47,2.66-3.77c1.78-0.31,3.47,0.89,3.77,2.66c0.06,0.37,0.06,0.74,0,1.11
		C-1267.37-31.51-1268.44-30.44-1269.8-30.2L-1269.8-30.2z"/>
	<path class="st0" d="M-1270.52-40.72L-1270.52-40.72c-0.32,0-0.57,0.26-0.57,0.57v0.79c0,0.32,0.26,0.57,0.57,0.57l0,0
		c0.32,0,0.57-0.26,0.57-0.57v-0.79C-1269.94-40.47-1270.2-40.72-1270.52-40.72z"/>
	<path class="st0" d="M-1271.09-27.48v0.79c0,0.32,0.26,0.57,0.57,0.57l0,0c0.32,0,0.57-0.26,0.57-0.57v-0.79
		c0-0.32-0.26-0.57-0.57-0.57l0,0C-1270.83-28.05-1271.09-27.8-1271.09-27.48z"/>
	<path class="st0" d="M-1276.3-33.99h-0.79c-0.32,0-0.57,0.26-0.57,0.57l0,0c0,0.32,0.26,0.57,0.57,0.57h0.79
		c0.32,0,0.57-0.26,0.57-0.57l0,0C-1275.73-33.74-1275.98-33.99-1276.3-33.99z"/>
	<path class="st0" d="M-1263.62-33.99h-0.79c-0.32,0-0.57,0.26-0.57,0.57l0,0c0,0.32,0.26,0.57,0.57,0.57h0.79
		c0.32,0,0.57-0.26,0.57-0.57l0,0C-1263.05-33.74-1263.31-33.99-1263.62-33.99z"/>
	<path class="st0" d="M-1274.3-37.88l-0.56-0.55c-0.23-0.22-0.59-0.22-0.81,0.01l0,0c-0.22,0.23-0.22,0.59,0.01,0.81l0.56,0.55
		c0.23,0.22,0.59,0.22,0.81-0.01l0,0C-1274.08-37.3-1274.08-37.66-1274.3-37.88z"/>
	<path class="st0" d="M-1266.63-28.73l0.56,0.55c0.23,0.22,0.59,0.22,0.81-0.01c0,0,0,0,0,0l0,0c0.22-0.23,0.22-0.59-0.01-0.81l0,0
		l-0.56-0.55c-0.23-0.22-0.59-0.22-0.81,0.01c0,0,0,0,0,0l0,0C-1266.86-29.32-1266.86-28.95-1266.63-28.73L-1266.63-28.73z"/>
	<path class="st0" d="M-1275.47-28.21L-1275.47-28.21c0.23,0.22,0.59,0.22,0.81-0.01c0,0,0,0,0,0l0.55-0.56
		c0.22-0.23,0.22-0.59-0.01-0.81l0,0l0,0c-0.23-0.22-0.59-0.22-0.81,0.01l-0.55,0.56C-1275.7-28.8-1275.7-28.43-1275.47-28.21
		L-1275.47-28.21z"/>
	<path class="st0" d="M-1265.78-37.26l0.55-0.56c0.22-0.23,0.22-0.59-0.01-0.81l0,0l0,0c-0.23-0.22-0.59-0.22-0.81,0.01l-0.55,0.56
		c-0.22,0.23-0.22,0.59,0.01,0.81h0l0,0C-1266.36-37.03-1266-37.03-1265.78-37.26C-1265.78-37.26-1265.78-37.26-1265.78-37.26z"/>
</g>
</svg>
