<svg xmlns="http://www.w3.org/2000/svg" width="23" height="23" viewBox="0 0 23 23"><defs><style>.a{fill:#3e3d3d;}</style></defs><path class="a" d="M172.143,137.714h1.348v1.348h-1.348Z" transform="translate(-164.41 -131.528)"/><path class="a" d="M172.143,206.571h1.348v1.348h-1.348Z" transform="translate(-164.41 -197.291)"/><path class="a" d="M309.857,206.571H311.2v1.348h-1.348Z" transform="translate(-295.938 -197.291)"/><path class="a" d="M378.714,206.571h1.348v1.348h-1.348Z" transform="translate(-361.701 -197.291)"/><path class="a" d="M309.857,275.429H311.2v1.348h-1.348Z" transform="translate(-295.938 -263.056)"/><path class="a" d="M378.714,275.429h1.348v1.348h-1.348Z" transform="translate(-361.701 -263.056)"/><path class="a" d="M309.857,344.286H311.2v1.348h-1.348Z" transform="translate(-295.938 -328.82)"/><path class="a" d="M378.714,344.286h1.348v1.348h-1.348Z" transform="translate(-361.701 -328.82)"/><path class="a" d="M309.857,413.143H311.2v1.348h-1.348Z" transform="translate(-295.938 -394.584)"/><path class="a" d="M378.714,413.143h1.348v1.348h-1.348Z" transform="translate(-361.701 -394.584)"/><path class="a" d="M103.286,206.571h1.348v1.348h-1.348Z" transform="translate(-98.646 -197.291)"/><path class="a" d="M172.143,275.429h1.348v1.348h-1.348Z" transform="translate(-164.41 -263.056)"/><path class="a" d="M103.286,275.429h1.348v1.348h-1.348Z" transform="translate(-98.646 -263.056)"/><path class="a" d="M172.143,344.286h1.348v1.348h-1.348Z" transform="translate(-164.41 -328.82)"/><path class="a" d="M103.286,344.286h1.348v1.348h-1.348Z" transform="translate(-98.646 -328.82)"/><path class="a" d="M21.453,21.652V6.186h-9.28V2.972l-1.547.258V0H3.093V4.485l-1.547.258v16.91H0V23H23V21.652ZM20.106,7.534V21.652H12.174V7.534ZM4.441,1.348H9.28V3.454L4.441,4.26ZM2.894,5.884l7.932-1.322v17.09H9.081V18.559H4.64v3.093H2.894ZM7.733,21.652H5.987V19.907H7.733Z" transform="translate(0 0)"/></svg>