<?xml version="1.0" encoding="utf-8"?>
<!-- Generator: Adobe Illustrator 25.0.0, SVG Export Plug-In . SVG Version: 6.00 Build 0)  -->
<svg version="1.1" id="Layer_1" xmlns="http://www.w3.org/2000/svg" xmlns:xlink="http://www.w3.org/1999/xlink" x="0px" y="0px"
	 viewBox="0 0 23.6 23.6" style="enable-background:new 0 0 23.6 23.6;" xml:space="preserve">
<g>
	<path class="st0" d="M9.7,23.1c-0.1,0-0.2-0.1-0.2-0.1l-0.6-2.4l-0.3-0.1c-0.3-0.1-0.5-0.2-0.8-0.3L7.7,20l-2.1,1.3
		c0,0-0.1,0-0.1,0c-0.1,0-0.1,0-0.1-0.1l-2.9-2.9c-0.1-0.1-0.1-0.2,0-0.2L3.6,16l-0.1-0.2c-0.1-0.3-0.2-0.5-0.3-0.8l-0.1-0.3
		l-2.4-0.6c-0.1,0-0.1-0.1-0.1-0.2V9.7c0-0.1,0.1-0.2,0.1-0.2l2.4-0.6l0.1-0.3c0.1-0.3,0.2-0.5,0.3-0.8l0.1-0.2L2.4,5.5
		c0-0.1,0-0.2,0-0.2l2.9-2.9c0,0,0.1-0.1,0.1-0.1c0,0,0.1,0,0.1,0l2.1,1.3l0.2-0.1c0.3-0.1,0.5-0.2,0.8-0.3l0.3-0.1l0.6-2.4
		c0-0.1,0.1-0.1,0.2-0.1h4.2c0.1,0,0.2,0.1,0.2,0.1l0.6,2.4l0.3,0.1c0.3,0.1,0.5,0.2,0.8,0.3L16,3.6l2.1-1.3c0,0,0.1,0,0.1,0
		c0.1,0,0.1,0,0.1,0.1l2.9,2.9c0.1,0.1,0.1,0.2,0,0.2L20,7.7l0.1,0.2c0.1,0.3,0.2,0.5,0.3,0.8l0.1,0.3L23,9.5c0.1,0,0.1,0.1,0.1,0.2
		v4.2c0,0.1-0.1,0.2-0.1,0.2l-2.4,0.6l-0.1,0.2c-0.1,0.3-0.2,0.5-0.3,0.8L20,16l1.3,2.1c0,0.1,0,0.2,0,0.2l-2.9,2.9
		c0,0-0.1,0.1-0.1,0.1l0,0c0,0-0.1,0-0.1,0L16,20l-0.2,0.1c-0.3,0.1-0.5,0.2-0.8,0.3l-0.3,0.1L14.1,23c0,0.1-0.1,0.1-0.2,0.1H9.7z
		 M9.9,22.7h3.8v-5.5l-0.6,0.1c-0.4,0.1-0.8,0.1-1.3,0.1c-0.4,0-0.9,0-1.3-0.1l-0.6-0.1V22.7z M2.8,5.5L4,7.6c0,0.1,0,0.1,0,0.2
		C3.8,8.2,3.6,8.7,3.4,9.2c0,0.1-0.1,0.1-0.1,0.1L0.9,9.9v3.8l2.4,0.6c0.1,0,0.1,0.1,0.1,0.1c0.2,0.5,0.4,1,0.6,1.4
		c0,0.1,0,0.1,0,0.2l-1.2,2.1l2.7,2.7l2.1-1.2c0,0,0.1,0,0.1,0c0.5,0.2,0.8,0.4,1.2,0.5l0.7,0.2v-3.3l-0.3-0.1C8,16.3,7,15.3,6.5,14
		c-0.6-1.4-0.6-3,0-4.4s1.7-2.5,3.1-3.1c0,0,0,0,0,0c0.2,0,0.2,0.1,0.2,0.2v5l1.9,1.3l1.9-1.3v-5c0-0.2,0.1-0.2,0.2-0.2
		c1.4,0.5,2.4,1.5,3,2.8c0.7,1.4,0.8,2.9,0.3,4.4c-0.5,1.5-1.5,2.6-2.9,3.3l-0.3,0.1v3.3l0.7-0.2c0.4-0.1,0.8-0.3,1.1-0.5l0.1,0
		c0,0,0.1,0,0.1,0l2.1,1.2l2.7-2.7l-1.2-2.1c0-0.1,0-0.1,0-0.2c0.2-0.5,0.4-0.9,0.6-1.4c0-0.1,0.1-0.1,0.1-0.1l2.4-0.6l0-3.8
		l-2.4-0.6c-0.1,0-0.1-0.1-0.1-0.1c-0.2-0.5-0.4-1-0.6-1.4c0-0.1,0-0.1,0-0.2l1.2-2.1l-2.7-2.7L16.1,4C16,4,16,4,16,4
		c-0.5-0.3-1-0.5-1.5-0.6c-0.1,0-0.1-0.1-0.1-0.1l-0.6-2.4H9.9L9.3,3.3c0,0.1-0.1,0.1-0.1,0.1C8.7,3.6,8.2,3.8,7.7,4
		c0,0-0.1,0-0.1,0c0,0-0.1,0-0.1,0L5.5,2.8L2.8,5.5z M8.8,7.4c-0.5,0.4-1,0.8-1.3,1.3c-1.7,2.4-1.1,5.8,1.3,7.4c0.9,0.6,2,1,3,1
		c1.7,0,3.4-0.9,4.4-2.3c1.7-2.4,1.1-5.8-1.3-7.4l-0.8-0.5v4.9c0,0.1,0,0.1-0.1,0.2l-2.1,1.4c0,0-0.1,0-0.1,0c0,0-0.1,0-0.1,0
		L9.6,12c-0.1,0-0.1-0.1-0.1-0.2V6.9L8.8,7.4z"/>
	<path class="st0" d="M13.9,0H9.7C9.4,0,9.1,0.2,9.1,0.5L8.5,2.7C8.2,2.8,8,2.9,7.7,3.1L5.8,1.9C5.7,1.9,5.6,1.8,5.4,1.8
		C5.3,1.8,5.1,1.9,5,2L2,5C1.8,5.2,1.8,5.5,1.9,5.8L3,7.7C2.9,8,2.8,8.2,2.7,8.5L0.5,9.1C0.2,9.1,0,9.4,0,9.7v4.2
		c0,0.3,0.2,0.6,0.5,0.7l2.2,0.5c0.1,0.3,0.2,0.6,0.4,0.8l-1.1,1.9c-0.2,0.3-0.1,0.6,0.1,0.8L5,21.6c0.1,0.1,0.3,0.2,0.5,0.2
		c0.1,0,0.2,0,0.4-0.1l1.9-1.1c0.3,0.1,0.6,0.3,0.8,0.4l0.5,2.2c0.1,0.3,0.4,0.5,0.7,0.5h4.2c0.3,0,0.6-0.2,0.7-0.5l0.5-2.2
		c0.3-0.1,0.6-0.2,0.8-0.4l1.9,1.1c0.1,0.1,0.2,0.1,0.4,0.1c0.2,0,0.4-0.1,0.5-0.2l2.9-2.9c0.2-0.2,0.3-0.6,0.1-0.8l-1.1-1.9
		c0.1-0.3,0.3-0.6,0.4-0.8l2.2-0.5c0.3-0.1,0.5-0.4,0.5-0.7V9.7c0-0.3-0.2-0.6-0.5-0.7l-2.2-0.5c-0.1-0.3-0.2-0.6-0.4-0.8l1.1-1.9
		c0.2-0.3,0.1-0.6-0.1-0.8L18.7,2c-0.1-0.1-0.3-0.2-0.5-0.2c-0.1,0-0.2,0-0.4,0.1L15.9,3c-0.3-0.1-0.6-0.3-0.8-0.4l-0.5-2.2
		C14.5,0.2,14.2,0,13.9,0L13.9,0z M7.7,4.5c0.1,0,0.2,0,0.3-0.1C8.4,4.2,8.9,4,9.3,3.9c0.2-0.1,0.4-0.3,0.5-0.5l0.5-2h3.1l0.5,2
		c0.1,0.2,0.2,0.4,0.5,0.5c0.5,0.1,0.9,0.3,1.3,0.6c0.1,0.1,0.2,0.1,0.3,0.1c0.1,0,0.2,0,0.4-0.1l1.7-1l2.2,2.2l-1,1.7
		c-0.1,0.2-0.1,0.5,0,0.7c0.2,0.4,0.4,0.9,0.6,1.3c0.1,0.2,0.3,0.4,0.5,0.5l2,0.5l0,3.1l-2,0.5c-0.2,0.1-0.4,0.2-0.5,0.5
		c-0.1,0.5-0.3,0.9-0.6,1.3c-0.1,0.2-0.1,0.5,0,0.7l1,1.7l-2.2,2.2l-1.7-1c-0.1-0.1-0.2-0.1-0.4-0.1c-0.1,0-0.2,0-0.3,0.1
		c-0.3,0.2-0.7,0.3-1.1,0.5v-2.2c3.1-1.5,4.3-5.3,2.8-8.3c-0.7-1.4-1.8-2.4-3.2-3C14.1,6,14,6,13.9,6c-0.3,0-0.5,0.2-0.6,0.4
		c0,0.1-0.1,0.2-0.1,0.3v4.8l-1.4,0.9l-1.4-0.9V6.7c0-0.4-0.3-0.7-0.7-0.7c0,0,0,0,0,0C9.6,6,9.6,6,9.5,6C6.3,7.3,4.7,11,6,14.1
		c0.6,1.4,1.6,2.6,3,3.2v2.2c-0.4-0.1-0.7-0.3-1.1-0.5c-0.1-0.1-0.2-0.1-0.3-0.1c-0.1,0-0.2,0-0.4,0.1l-1.7,1l-2.2-2.2l1-1.7
		c0.1-0.2,0.1-0.5,0-0.7c-0.2-0.4-0.4-0.9-0.6-1.3c-0.1-0.2-0.3-0.4-0.5-0.5l-2-0.5v-3.1l2-0.5c0.2-0.1,0.4-0.2,0.5-0.5
		C4,8.9,4.2,8.4,4.5,8c0.1-0.2,0.1-0.5,0-0.7l-1-1.7l2.2-2.2l1.7,1C7.4,4.5,7.5,4.5,7.7,4.5L7.7,4.5z M11.8,13.9
		c0.1,0,0.3,0,0.4-0.1l2.1-1.4c0.2-0.1,0.3-0.3,0.3-0.6v-4c2.2,1.5,2.7,4.5,1.2,6.7c-0.9,1.4-2.4,2.1-4,2.1c-1,0-1.9-0.3-2.8-0.9
		C6.8,14.3,6.3,11.2,7.8,9C8.2,8.6,8.6,8.2,9,7.8v4c0,0.2,0.1,0.4,0.3,0.6l2.1,1.4C11.5,13.8,11.7,13.9,11.8,13.9L11.8,13.9z
		 M11.8,18c0.5,0,0.9-0.1,1.4-0.2v4.4h-2.8v-4.4C10.9,18,11.3,18,11.8,18C11.8,18,11.8,18,11.8,18C11.8,18,11.8,18,11.8,18L11.8,18z
		"/>
</g>
</svg>
