<svg xmlns="http://www.w3.org/2000/svg" width="33.203" height="33.203" viewBox="0 0 33.203 33.203"><defs><style>.a{fill:#238a8c;}</style></defs><g transform="translate(0 0)"><path class="a" d="M17.643,33.2H15.56A3.06,3.06,0,0,1,12.5,30.147v-.7a13.4,13.4,0,0,1-2.081-.864l-.5.5a3.057,3.057,0,0,1-4.323,0L4.126,27.6a3.056,3.056,0,0,1,0-4.323l.5-.5A13.405,13.405,0,0,1,3.762,20.7h-.7A3.06,3.06,0,0,1,0,17.644V15.56A3.06,3.06,0,0,1,3.057,12.5h.7a13.408,13.408,0,0,1,.864-2.081l-.5-.5a3.057,3.057,0,0,1,0-4.323L5.6,4.126a3.056,3.056,0,0,1,4.323,0l.5.5A13.417,13.417,0,0,1,12.5,3.762v-.7A3.06,3.06,0,0,1,15.56,0h2.084A3.06,3.06,0,0,1,20.7,3.057v.7a13.4,13.4,0,0,1,2.081.864l.5-.5a3.057,3.057,0,0,1,4.323,0L29.077,5.6a3.056,3.056,0,0,1,0,4.323l-.5.5a13.406,13.406,0,0,1,.864,2.081h.7A3.06,3.06,0,0,1,33.2,15.56v2.084A3.06,3.06,0,0,1,30.147,20.7h-.7a13.408,13.408,0,0,1-.864,2.081l.5.5a3.057,3.057,0,0,1,0,4.323L27.6,29.077a3.056,3.056,0,0,1-4.323,0l-.5-.5a13.417,13.417,0,0,1-2.081.864v.7A3.06,3.06,0,0,1,17.643,33.2Zm-6.9-6.669a11.466,11.466,0,0,0,2.972,1.234.973.973,0,0,1,.73.942v1.436a1.112,1.112,0,0,0,1.111,1.111h2.084a1.112,1.112,0,0,0,1.111-1.111V28.71a.973.973,0,0,1,.73-.942,11.466,11.466,0,0,0,2.972-1.234.973.973,0,0,1,1.183.149L24.657,27.7a1.111,1.111,0,0,0,1.571,0L27.7,26.228a1.111,1.111,0,0,0,0-1.571l-1.018-1.018a.973.973,0,0,1-.149-1.183,11.464,11.464,0,0,0,1.234-2.972.973.973,0,0,1,.942-.73h1.436a1.112,1.112,0,0,0,1.111-1.111V15.56a1.112,1.112,0,0,0-1.111-1.111H28.71a.973.973,0,0,1-.942-.73,11.467,11.467,0,0,0-1.234-2.972.973.973,0,0,1,.149-1.183L27.7,8.546a1.111,1.111,0,0,0,0-1.571L26.228,5.5a1.111,1.111,0,0,0-1.571,0L23.64,6.519a.973.973,0,0,1-1.183.149,11.466,11.466,0,0,0-2.972-1.234.973.973,0,0,1-.73-.942V3.057a1.112,1.112,0,0,0-1.111-1.111H15.56a1.112,1.112,0,0,0-1.111,1.111V4.493a.973.973,0,0,1-.73.942,11.466,11.466,0,0,0-2.972,1.234.973.973,0,0,1-1.183-.149L8.546,5.5a1.111,1.111,0,0,0-1.571,0L5.5,6.975a1.111,1.111,0,0,0,0,1.571L6.519,9.564a.973.973,0,0,1,.149,1.183,11.464,11.464,0,0,0-1.234,2.972.973.973,0,0,1-.942.73H3.057A1.112,1.112,0,0,0,1.946,15.56v2.084a1.112,1.112,0,0,0,1.111,1.111H4.493a.973.973,0,0,1,.942.73,11.466,11.466,0,0,0,1.234,2.972.973.973,0,0,1-.149,1.183L5.5,24.657a1.111,1.111,0,0,0,0,1.571L6.975,27.7a1.111,1.111,0,0,0,1.571,0l1.018-1.018a.977.977,0,0,1,1.183-.149Z"/><path class="a" d="M151.824,159.049a7.224,7.224,0,1,1,7.224-7.224A7.232,7.232,0,0,1,151.824,159.049Zm0-12.5a5.279,5.279,0,1,0,5.279,5.279A5.285,5.285,0,0,0,151.824,146.546Z" transform="translate(-135.223 -135.223)"/></g></svg>