<?xml version="1.0" encoding="utf-8"?>
<!-- Generator: Adobe Illustrator 25.0.0, SVG Export Plug-In . SVG Version: 6.00 Build 0)  -->
<svg version="1.1" id="Layer_1" xmlns="http://www.w3.org/2000/svg" xmlns:xlink="http://www.w3.org/1999/xlink" x="0px" y="0px"
	 viewBox="0 0 19.9 20.2" style="enable-background:new 0 0 19.9 20.2;" xml:space="preserve">
<g transform="translate(-4.508)">
	<g transform="translate(4.508 6)">
		<g transform="translate(0)">
			<path class="st0" d="M19.1,0H0.8C0.3,0,0,0.3,0,0.8l0,0v12.7c0,0.4,0.3,0.8,0.8,0.8h0h18.3c0.4,0,0.8-0.3,0.8-0.8l0,0V0.8
				C19.9,0.3,19.5,0,19.1,0C19.1,0,19.1,0,19.1,0z M18.3,12.7H1.5V1.5h16.8L18.3,12.7z"/>
		</g>
	</g>
	<g transform="translate(6.186 2.975)">
		<g transform="translate(0)">
			<path class="st0" d="M15.7,0H0.8C0.3,0,0,0.3,0,0.8l0,0v3h1.5V1.5H15v2.3h1.5v-3C16.5,0.3,16.1,0,15.7,0L15.7,0z"/>
		</g>
	</g>
	<g transform="translate(8.449)">
		<g transform="translate(0)">
			<path class="st0" d="M11.2,0H0.8C0.3,0,0,0.3,0,0.8c0,0,0,0,0,0v3h1.5V1.5h8.9v2.2H12v-3C12,0.3,11.6,0,11.2,0
				C11.2,0,11.2,0,11.2,0z"/>
		</g>
	</g>
	<g transform="translate(10.712 11.06)">
		<path class="st0" d="M6.7,0H0.8C0.3,0,0,0.3,0,0.7c0,0.4,0.3,0.8,0.7,0.8c0,0,0,0,0.1,0h5.9c0.4,0,0.8-0.3,0.8-0.7
			C7.5,0.4,7.1,0,6.7,0C6.7,0,6.7,0,6.7,0z"/>
	</g>
</g>
</svg>
