<?xml version="1.0" encoding="utf-8"?>
<!-- Generator: Adobe Illustrator 25.0.0, SVG Export Plug-In . SVG Version: 6.00 Build 0)  -->
<svg version="1.1" id="Layer_1" xmlns="http://www.w3.org/2000/svg" xmlns:xlink="http://www.w3.org/1999/xlink" x="0px" y="0px"
	 viewBox="0 0 20 20" style="enable-background:new 0 0 20 20;" xml:space="preserve">
<g>
	<g>
		<path class="st0" d="M10.7,8.2L13.9,5h-2.2c-0.4,0-0.8-0.3-0.8-0.8s0.3-0.8,0.8-0.8c0,0,0,0,0,0h2.9c1.1,0,2,0.9,2,2v2.9
			c0,0.4-0.4,0.8-0.8,0.8S15,8.8,15,8.3V6.1l-3.2,3.2c-0.3,0.3-0.8,0.3-1.1,0C10.4,9.1,10.3,8.6,10.7,8.2
			C10.6,8.3,10.7,8.3,10.7,8.2z"/>
	</g>
	<g>
		<path class="st0" d="M4.2,10.9c-0.4,0-0.8,0.4-0.8,0.8v2.9c0,1.1,0.9,2,2,2h2.9c0.4,0,0.8-0.4,0.8-0.8c0-0.4-0.4-0.8-0.8-0.8H6.1
			l3.2-3.2c0.3-0.3,0.3-0.8,0.1-1.1s-0.8-0.3-1.1-0.1c0,0,0,0,0,0L5,13.9v-2.2C5,11.3,4.7,10.9,4.2,10.9L4.2,10.9z"/>
	</g>
</g>
<g>
	<path class="st0" d="M17.4,20H2.7c-1.4,0-2.5-1.1-2.5-2.5V2.6C0.1,1.2,1.3,0,2.7,0h14.7c1.4,0,2.5,1.1,2.5,2.5v14.9
		C19.9,18.8,18.8,20,17.4,20z M2.7,1.5c-0.6,0-1,0.5-1,1v14.9c0,0.6,0.5,1,1,1h14.7c0.6,0,1-0.5,1-1V2.6c0-0.6-0.5-1-1-1H2.7z"/>
</g>
</svg>
