<?xml version="1.0" encoding="utf-8"?>
<!-- Generator: Adobe Illustrator 25.0.0, SVG Export Plug-In . SVG Version: 6.00 Build 0)  -->
<svg version="1.1" id="Layer_1" xmlns="http://www.w3.org/2000/svg" xmlns:xlink="http://www.w3.org/1999/xlink" x="0px" y="0px"
	 viewBox="0 0 15 15" style="enable-background:new 0 0 15 15;" xml:space="preserve">
<g transform="translate(1046.845 -158.805)">
	<path class="st0" d="M-1032.4,166.66c-0.22-0.15-0.51-0.16-0.74-0.03c-2.47,1.42-5.63,0.56-7.05-1.91c-0.8-1.39-0.9-3.07-0.29-4.55
		c0.15-0.35-0.02-0.76-0.38-0.91c-0.14-0.06-0.3-0.07-0.45-0.03c-3.87,1.1-6.12,5.13-5.02,9s5.13,6.12,9,5.02
		c2.75-0.78,4.79-3.1,5.21-5.93C-1032.06,167.08-1032.18,166.81-1032.4,166.66z M-1039.3,172.24c-3.3,0-5.98-2.67-5.99-5.98
		c0-2.24,1.25-4.29,3.24-5.32c-0.68,3.51,1.62,6.89,5.12,7.57c1.08,0.21,2.2,0.14,3.24-0.21
		C-1034.56,170.66-1036.8,172.22-1039.3,172.24L-1039.3,172.24z"/>
	<path class="st0" d="M-1036.6,161.85l0.83,0.44c0.01,0.01,0.02,0.02,0.03,0.03l0.44,0.83c0.02,0.04,0.06,0.05,0.1,0.03
		c0.01-0.01,0.02-0.02,0.03-0.03l0.44-0.83c0.01-0.01,0.02-0.02,0.03-0.03l0.83-0.44c0.04-0.02,0.05-0.06,0.03-0.1
		c-0.01-0.01-0.02-0.02-0.03-0.03l-0.83-0.44c-0.01-0.01-0.02-0.02-0.03-0.03l-0.44-0.83c-0.02-0.04-0.06-0.05-0.1-0.03
		c-0.01,0.01-0.02,0.02-0.03,0.03l-0.44,0.83c-0.01,0.01-0.02,0.02-0.03,0.03l-0.83,0.44c-0.04,0.02-0.05,0.06-0.03,0.1
		C-1036.62,161.83-1036.61,161.84-1036.6,161.85z"/>
	<path class="st0" d="M-1038.04,160.16c0.01,0,0.01,0.01,0.02,0.02l0.25,0.48c0.01,0.02,0.04,0.03,0.06,0.02
		c0.01,0,0.01-0.01,0.02-0.02l0.25-0.48c0-0.01,0.01-0.01,0.02-0.02l0.48-0.25c0.02-0.01,0.03-0.04,0.02-0.06
		c0-0.01-0.01-0.01-0.02-0.02l-0.48-0.25c-0.01,0-0.01-0.01-0.02-0.02l-0.25-0.48c-0.01-0.02-0.04-0.03-0.06-0.02
		c-0.01,0-0.01,0.01-0.02,0.02l-0.25,0.48c0,0.01-0.01,0.01-0.02,0.02l-0.48,0.25c-0.02,0.01-0.03,0.04-0.02,0.06
		c0,0.01,0.01,0.01,0.02,0.02L-1038.04,160.16z"/>
</g>
</svg>
