<?xml version="1.0" encoding="utf-8"?>
<!-- Generator: Adobe Illustrator 25.0.0, SVG Export Plug-In . SVG Version: 6.00 Build 0)  -->
<svg version="1.1" id="Layer_1" xmlns="http://www.w3.org/2000/svg" xmlns:xlink="http://www.w3.org/1999/xlink" x="0px" y="0px"
	 viewBox="0 0 18 18" style="enable-background:new 0 0 18 18;" xml:space="preserve">
<g transform="translate(-0.003 0)">
	<g transform="translate(0.003 0)">
		<g transform="translate(0 0)">
			<g>
				<path class="st0" d="M17,9.1V6.7c0-0.8-0.7-1.6-1.5-1.7l-2.3-3.9c-0.2-0.4-0.6-0.7-1-0.8c-0.4-0.1-0.9-0.1-1.3,0.2L3.2,5H1.9
					C0.9,5,0.2,5.8,0.2,6.7v9.5c0,0.9,0.8,1.7,1.7,1.7h13.5c0.9,0,1.7-0.8,1.7-1.7v-2.4c0.5-0.2,0.8-0.7,0.8-1.2v-2.4
					C17.8,9.7,17.5,9.3,17,9.1z M13.7,3.7L14.4,5h-3L13.7,3.7z M13.2,2.9L9.5,5H8.3l4.6-2.7L13.2,2.9z M11.5,1.3
					c0.2-0.1,0.3-0.1,0.5-0.1c0.2,0,0.3,0.1,0.4,0.3L6.3,5H5.1L11.5,1.3z M16.1,16.2c0,0.4-0.3,0.7-0.7,0.7H1.9
					c-0.4,0-0.7-0.3-0.7-0.7V6.7C1.1,6.3,1.5,6,1.9,6h13.5c0.4,0,0.7,0.3,0.7,0.7V9h-2.3c-0.6,0-1.3,0.2-1.8,0.7
					c-0.5,0.5-0.7,1.1-0.8,1.7c0,1.4,1.1,2.5,2.4,2.5h2.4V16.2z M16.8,12.6c0,0.2-0.1,0.3-0.3,0.3h-2.8c-0.8,0-1.5-0.7-1.5-1.5
					c0-0.8,0.7-1.5,1.5-1.5h2.8c0.2,0,0.3,0.1,0.3,0.3L16.8,12.6z"/>
			</g>
			<g>
				<path class="st0" d="M14.6,11.5c0,0.5-0.4,0.9-0.9,0.9c-0.5,0-0.9-0.4-0.9-0.9c0-0.5,0.4-0.9,0.9-0.9
					C14.3,10.6,14.6,11,14.6,11.5z"/>
			</g>
		</g>
	</g>
</g>
</svg>
